:SAMPLES-PER-SECOND 30
:FULLY-SPECIFIED
:DEGREES
738
root  4.61074 34.3274 -18.0461 -173.824 61.0392 178.244
LeftUpLeg  -10.2313 8.41719 -1.18636
LeftLeg  9.57673 2.11423 0.217141
LeftFoot  1.83571 0.00547084 0.116215
LeftToes  -14.4436 7.65994e-007 1.12379e-007
Spine  5.92014 1.51432 -0.489856
Spine1  11.088 2.95043 -0.42512
RightShoulder  0.0856103 3.21675 -9.97856
RightArm  14.4844 9.03538 91.4515
RightForeArm  142.693 50.397 167.346
RightHand  2.71901 -9.08385 -32.875
LeftShoulder1  0.107655 9.11548 3.16618
LeftArm  -45.0453 -61.4235 -44.7553
LeftForeArm  161.083 -50.5063 -167.268
LeftHand  -0.260508 -2.26706 12.7775
HEad  33.5777 -11.2686 -8.22628
RightUpLeg  -14.0634 0.582903 -6.7577
RightLeg  8.03087 16.1083 1.21448
RightFoot  7.4883 -0.118055 2.2122
RightToes  -33.8173 -0.171942 -0.277561
739
root  4.60091 34.3237 -18.0303 -173.902 61.1386 178.174
LeftUpLeg  -10.2615 8.3086 -1.19928
LeftLeg  9.65006 2.31373 0.240707
LeftFoot  1.81617 0.0065174 0.118192
LeftToes  -14.5035 7.65994e-007 1.12379e-007
Spine  5.91244 1.54788 -0.469328
Spine1  11.0713 3.01983 -0.384451
RightShoulder  0.0858316 3.37316 -9.97783
RightArm  14.3575 9.17503 91.5741
RightForeArm  142.577 50.4609 167.318
RightHand  2.72555 -9.18123 -32.6152
LeftShoulder1  0.108228 9.07433 3.05429
LeftArm  -45.3371 -61.2694 -44.6182
LeftForeArm  161.457 -50.0399 -167.475
LeftHand  -0.279038 -2.40063 12.9254
HEad  32.8593 -10.8999 -8.73585
RightUpLeg  -14.1 0.523243 -6.76806
RightLeg  8.06057 16.266 1.23445
RightFoot  7.48404 -0.119799 2.23531
RightToes  -33.8676 -0.172536 -0.278036
740
root  4.59714 34.3183 -18.0155 -174.045 61.2486 178.062
LeftUpLeg  -10.2769 8.27254 -1.2245
LeftLeg  9.76825 2.43566 0.258508
LeftFoot  1.77141 0.00759727 0.119734
LeftToes  -14.5304 7.65994e-007 1.12379e-007
Spine  5.86176 1.62567 -0.492539
Spine1  10.9756 3.18435 -0.429614
RightShoulder  0.0861517 3.42088 -10.0823
RightArm  14.2919 9.37976 91.7667
RightForeArm  142.75 50.4823 167.307
RightHand  2.71443 -9.13237 -32.6547
LeftShoulder1  0.108781 9.02731 2.93423
LeftArm  -45.9607 -61.3906 -44.1588
LeftForeArm  159.125 -52.2654 -166.447
LeftHand  -0.254968 -2.24042 12.6525
HEad  35.0641 -12.2831 -8.32104
RightUpLeg  -14.0973 0.519777 -6.797
RightLeg  8.06323 16.3754 1.2433
RightFoot  7.44068 -0.120364 2.23992
RightToes  -33.7861 -0.17307 -0.278523
741
root  4.59763 34.3167 -17.9943 -174.176 61.2321 177.982
LeftUpLeg  -10.3055 8.22722 -1.22691
LeftLeg  9.91964 2.47856 0.269683
LeftFoot  1.74672 0.00871714 0.120657
LeftToes  -14.5711 7.65994e-007 1.12379e-007
Spine  5.82434 1.65446 -0.551305
Spine1  10.9061 3.25071 -0.546711
RightShoulder  0.0865028 3.28032 -10.1609
RightArm  14.4423 9.52587 91.8592
RightForeArm  142.881 50.5093 167.295
RightHand  2.69896 -9.04568 -32.7752
LeftShoulder1  0.109306 9.24855 3.06057
LeftArm  -46.6384 -61.7902 -43.5034
LeftForeArm  156.881 -54.4671 -165.318
LeftHand  -0.182545 -1.68902 12.0152
HEad  37.6594 -13.6381 -7.21729
RightUpLeg  -14.0297 0.494618 -6.80454
RightLeg  8.01088 16.4087 1.2309
RightFoot  7.45663 -0.121294 2.24939
RightToes  -33.8841 -0.173549 -0.27902
742
root  4.59514 34.3214 -17.9769 -174.218 61.1807 177.986
LeftUpLeg  -10.3304 8.1841 -1.20322
LeftLeg  10.0096 2.50536 0.276579
LeftFoot  1.76665 0.00972171 0.123298
LeftToes  -14.5682 7.65994e-007 1.12379e-007
Spine  5.81285 1.64004 -0.566619
Spine1  10.8834 3.22621 -0.584604
RightShoulder  0.0868026 3.21639 -10.1794
RightArm  14.4612 9.41202 91.7002
RightForeArm  142.708 50.4106 167.34
RightHand  2.68787 -9.02934 -32.7031
LeftShoulder1  0.109796 9.39552 3.20605
LeftArm  -46.7775 -62.0061 -43.189
LeftForeArm  158.362 -53.4408 -165.859
LeftHand  -0.193408 -1.75939 12.2236
HEad  36.3478 -12.4493 -7.30785
RightUpLeg  -14.0277 0.383604 -6.77817
RightLeg  8.08899 16.5119 1.26077
RightFoot  7.4766 -0.123018 2.26978
RightToes  -33.9037 -0.173978 -0.279525
743
root  4.592 34.3218 -17.9642 -174.221 61.2709 178.017
LeftUpLeg  -10.3585 8.19898 -1.17624
LeftLeg  10.1192 2.59542 0.291571
LeftFoot  1.71956 0.0106647 0.126744
LeftToes  -14.4836 7.65994e-007 1.12379e-007
Spine  5.808 1.62188 -0.567769
Spine1  10.8743 3.19497 -0.596706
RightShoulder  0.0870751 3.2462 -10.1778
RightArm  14.5099 9.21732 91.6553
RightForeArm  142.765 50.3745 167.356
RightHand  2.70884 -9.147 -32.5403
LeftShoulder1  0.110245 9.60126 3.15038
LeftArm  -46.5044 -62.0402 -43.3531
LeftForeArm  159.821 -51.6737 -166.731
LeftHand  -0.246721 -2.18829 12.5335
HEad  33.8763 -11.4287 -7.57085
RightUpLeg  -14.0868 0.324072 -6.74347
RightLeg  8.2192 16.7192 1.31387
RightFoot  7.45409 -0.125088 2.29351
RightToes  -33.8592 -0.174363 -0.280036
744
root  4.58527 34.3169 -17.9546 -174.247 61.5477 178.033
LeftUpLeg  -10.4001 8.17522 -1.15176
LeftLeg  10.3234 2.87544 0.333482
LeftFoot  1.59793 0.0115986 0.130104
LeftToes  -14.4746 7.65994e-007 1.12379e-007
Spine  5.79905 1.64868 -0.566355
Spine1  10.8562 3.25107 -0.59248
RightShoulder  0.0873267 3.35252 -10.1605
RightArm  14.5124 9.27771 91.7569
RightForeArm  142.754 50.3861 167.351
RightHand  2.68199 -9.1308 -32.2864
LeftShoulder1  0.110645 9.51245 3.00483
LeftArm  -46.4368 -61.7571 -43.4635
LeftForeArm  160.488 -50.9534 -167.066
LeftHand  -0.274729 -2.3741 12.8673
HEad  32.8595 -11.419 -8.11974
RightUpLeg  -14.1323 0.245011 -6.70048
RightLeg  8.22838 17.0958 1.34539
RightFoot  7.45359 -0.129354 2.34868
RightToes  -33.8577 -0.17471 -0.28055
745
root  4.57443 34.3112 -17.9462 -174.301 61.8273 178.028
LeftUpLeg  -10.4289 8.08641 -1.13857
LeftLeg  10.5072 3.22458 0.384534
LeftFoot  1.49842 0.0125759 0.132483
LeftToes  -14.4873 7.65994e-007 1.12379e-007
Spine  5.75999 1.68992 -0.587775
Spine1  10.7827 3.34109 -0.637203
RightShoulder  0.0876381 3.37098 -10.1938
RightArm  14.5429 9.48539 91.8944
RightForeArm  143.08 50.3939 167.346
RightHand  2.66651 -9.0424 -32.4094
LeftShoulder1  0.110989 9.44303 2.86828
LeftArm  -46.5498 -61.7586 -43.5262
LeftForeArm  158.825 -52.6229 -166.272
LeftHand  -0.256761 -2.24738 12.7028
HEad  34.8025 -12.6147 -7.91177
RightUpLeg  -14.1023 0.182574 -6.67088
RightLeg  8.10934 17.4252 1.33474
RightFoot  7.51198 -0.134553 2.4151
RightToes  -33.8976 -0.175023 -0.281065
746
root  4.55919 34.3095 -17.9346 -174.356 62.0804 178.024
LeftUpLeg  -10.4487 8.22404 -1.13633
LeftLeg  10.6374 3.33435 0.405321
LeftFoot  1.44844 0.0136704 0.132655
LeftToes  -14.4401 7.65994e-007 1.12379e-007
Spine  5.73752 1.70667 -0.63538
Spine1  10.7395 3.38063 -0.731343
RightShoulder  0.0880181 3.25216 -10.2738
RightArm  14.6653 9.61745 91.9726
RightForeArm  143.325 50.4085 167.339
RightHand  2.66676 -8.97433 -32.6483
LeftShoulder1  0.11127 9.54428 2.93077
LeftArm  -46.8826 -61.9563 -43.2396
LeftForeArm  157.613 -54.0613 -165.535
LeftHand  -0.214911 -1.92469 12.4159
HEad  36.6647 -13.6278 -7.3052
RightUpLeg  -14.0819 0.255996 -6.656
RightLeg  7.99363 17.5998 1.31256
RightFoot  7.61325 -0.13938 2.47189
RightToes  -33.9931 -0.175309 -0.28158
747
root  4.53769 34.311 -17.9265 -174.357 62.3052 178.057
LeftUpLeg  -10.4449 8.43823 -1.13905
LeftLeg  10.6361 3.35779 0.408097
LeftFoot  1.4618 0.0147284 0.132934
LeftToes  -14.4102 7.65994e-007 1.12379e-007
Spine  5.73882 1.67313 -0.666638
Spine1  10.7376 3.31445 -0.793926
RightShoulder  0.0883726 3.11918 -10.3024
RightArm  14.7897 9.55939 91.963
RightForeArm  143.272 50.4051 167.341
RightHand  2.67311 -8.97751 -32.7115
LeftShoulder1  0.111481 9.62608 3.06631
LeftArm  -47.0593 -62.0633 -42.9814
LeftForeArm  158.861 -52.9007 -166.133
LeftHand  -0.221529 -1.95735 12.5875
HEad  35.2822 -12.6057 -7.32807
RightUpLeg  -14.1105 0.390445 -6.64865
RightLeg  7.92763 17.7197 1.30106
RightFoot  7.71587 -0.144558 2.52072
RightToes  -34.0027 -0.175571 -0.282092
748
root  4.51373 34.3123 -17.9208 -174.344 62.5922 178.091
LeftUpLeg  -10.4263 8.6094 -1.1423
LeftLeg  10.5954 3.4717 0.419469
LeftFoot  1.47101 0.0155518 0.136322
LeftToes  -14.3678 7.65994e-007 1.12379e-007
Spine  5.74176 1.62673 -0.67844
Spine1  10.7452 3.22516 -0.824666
RightShoulder  0.0886878 3.15415 -10.3144
RightArm  14.8128 9.46071 92.0327
RightForeArm  143.144 50.479 167.308
RightHand  2.67341 -9.02937 -32.5347
LeftShoulder1  0.111615 9.72906 3.08676
LeftArm  -46.9397 -62.1109 -43.0883
LeftForeArm  160.226 -51.3405 -166.887
LeftHand  -0.254263 -2.22001 12.7355
HEad  33.335 -11.6041 -7.3325
RightUpLeg  -14.1943 0.534983 -6.64372
RightLeg  7.92583 17.8692 1.31116
RightFoot  7.79826 -0.149522 2.56943
RightToes  -34.0025 -0.175817 -0.282598
749
root  4.48709 34.3095 -17.9205 -174.377 62.9582 178.071
LeftUpLeg  -10.3806 8.67644 -1.16912
LeftLeg  10.527 3.73808 0.447189
LeftFoot  1.45676 0.0161111 0.143196
LeftToes  -14.3156 7.65994e-007 1.12379e-007
Spine  5.74288 1.60332 -0.677674
Spine1  10.7363 3.17881 -0.823182
RightShoulder  0.0890031 3.24481 -10.333
RightArm  14.8484 9.52116 92.2584
RightForeArm  143.086 50.6026 167.252
RightHand  2.67365 -9.06369 -32.4191
LeftShoulder1  0.111333 9.60731 3.05239
LeftArm  -47.2876 -61.8863 -42.8996
LeftForeArm  160.203 -51.2534 -166.927
LeftHand  -0.271335 -2.36172 12.7733
HEad  32.7807 -11.546 -7.71299
RightUpLeg  -14.278 0.592386 -6.65167
RightLeg  7.89115 18.1745 1.32203
RightFoot  7.86831 -0.155703 2.63932
RightToes  -33.9776 -0.176051 -0.283097
750
root  4.45059 34.3044 -17.9214 -174.464 63.3233 178.005
LeftUpLeg  -10.364 8.69462 -1.22323
LeftLeg  10.5096 4.05515 0.483913
LeftFoot  1.45296 0.0164801 0.152334
LeftToes  -14.3671 7.65994e-007 1.12379e-007
Spine  5.73694 1.62341 -0.694464
Spine1  10.7196 3.22287 -0.854196
RightShoulder  0.0893656 3.26844 -10.3888
RightArm  14.7874 9.64534 92.4583
RightForeArm  143.25 50.5898 167.258
RightHand  2.65321 -8.97447 -32.4891
LeftShoulder1  0.111299 9.56038 3.0175
LeftArm  -47.6689 -62.0472 -42.7656
LeftForeArm  158.874 -52.9145 -166.126
LeftHand  -0.242547 -2.16416 12.4577
HEad  34.4773 -12.4974 -7.19078
RightUpLeg  -14.3363 0.723273 -6.69636
RightLeg  7.79394 18.3911 1.30648
RightFoot  7.98201 -0.16232 2.71082
RightToes  -34.1654 -0.176278 -0.283585
751
root  4.40485 34.3012 -17.9221 -174.607 63.668 177.888
LeftUpLeg  -10.4016 8.94575 -1.32253
LeftLeg  10.577 4.14719 0.499846
LeftFoot  1.42463 0.0173723 0.152573
LeftToes  -14.252 7.65994e-007 1.12379e-007
Spine  5.75564 1.63112 -0.738519
Spine1  10.7477 3.24024 -0.933927
RightShoulder  0.0897773 3.20265 -10.4765
RightArm  14.8002 9.75358 92.5796
RightForeArm  143.315 50.6208 167.243
RightHand  2.63995 -8.8864 -32.6411
LeftShoulder1  0.111141 9.69443 3.10837
LeftArm  -48.0113 -62.3579 -42.4631
LeftForeArm  158.016 -54.0439 -165.543
LeftHand  -0.208962 -1.90188 12.2133
HEad  35.8105 -13.0555 -6.87452
RightUpLeg  -14.3997 0.952248 -6.79149
RightLeg  7.69795 18.5154 1.28441
RightFoot  8.07936 -0.168447 2.76214
RightToes  -34.0898 -0.176504 -0.284062
